Coordinates
version=1
nRows=9
nColumns=63
inDegrees=yes

Units are S.I. units (second, meters, Newtons, ...)
If the header above contains a line with 'inDegrees', this indicates whether rotational values are in degrees (yes) or radians (no).

endheader
time	pelvis_tilt	pelvis_list	pelvis_rotation	pelvis_tx	pelvis_ty	pelvis_tz	hip_flexion_r	hip_adduction_r	hip_rotation_r	knee_angle_r	knee_angle_r_beta	ankle_angle_r	subtalar_angle_r	mtp_angle_r	hip_flexion_l	hip_adduction_l	hip_rotation_l	knee_angle_l	knee_angle_l_beta	ankle_angle_l	subtalar_angle_l	mtp_angle_l	L5_S1_Flex_Ext	L5_S1_Lat_Bending	L5_S1_axial_rotation	L4_L5_Flex_Ext	L4_L5_Lat_Bending	L4_L5_axial_rotation	L3_L4_Flex_Ext	L3_L4_Lat_Bending	L3_L4_axial_rotation	L2_L3_Flex_Ext	L2_L3_Lat_Bending	L2_L3_axial_rotation	L1_L2_Flex_Ext	L1_L2_Lat_Bending	L1_L2_axial_rotation	L1_T12_Flex_Ext	L1_T12_Lat_Bending	L1_T12_axial_rotation	Abs_r3	Abs_r2	Abs_r1	Abs_t1	Abs_t2	neck_flexion	neck_bending	neck_rotation	arm_flex_r	arm_add_r	arm_rot_r	elbow_flex_r	pro_sup_r	wrist_flex_r	wrist_dev_r	arm_flex_l	arm_add_l	arm_rot_l	elbow_flex_l	pro_sup_l	wrist_flex_l	wrist_dev_l
      0.00000000	     -2.35814461	     -2.95115932	     94.37649612	      0.25513102	      1.01661006	      0.36485564	      0.77367223	     -3.96590156	    -18.39340396	     12.47762341	      0.21777561	     37.00062535	      6.54786448	      0.00000000	      2.50069786	      1.06343842	      9.17770551	      9.32835314	      0.16281048	     41.35461127	     10.22199242	      0.00000000	      0.28412249	     -0.00629227	     -1.87564228	      0.52764388	     -0.00836872	     -1.99286992	      0.46678484	     -0.01529902	     -1.99286992	      0.32472360	     -0.01529902	     -1.64118699	      0.26383615	     -0.01283119	     -1.52395935	      0.16234759	     -0.00974672	     -1.40673171	      2.02945856	     -0.07117939	    -10.43175967	      0.00000000	      0.00000000	     27.05926276	      5.71867504	      7.58033516	     13.00326669	     -6.23634378	     82.87607158	     35.46179053	      6.35534244	     -2.29212003	     -0.65590603	     15.80463581	     -6.62337993	     77.53666185	     35.00605630	     69.87975557	      1.45880765	    -11.06127782
      0.02127660	     -2.39572847	     -2.30117671	     94.29980664	      0.25551961	      1.01636031	      0.36528525	      0.07525676	     -3.93326478	    -18.42886787	     12.67631740	      0.22124348	     36.54829331	      5.92205124	      0.00000000	      1.78560296	      1.06647608	      9.65122093	      9.52030727	      0.16616071	     41.29743467	     10.21238476	      0.00000000	      0.22958797	     -0.02890742	     -1.69255638	      0.42636782	     -0.03844687	     -1.79834116	      0.37719007	     -0.07028550	     -1.79834116	      0.26239609	     -0.07028550	     -1.48098684	      0.21319539	     -0.05894801	     -1.37520206	      0.13118657	     -0.04477759	     -1.26941729	      1.63992391	     -0.32700652	     -9.41349084	      0.00000000	      0.00000000	     25.69913630	      4.86695594	      6.47012813	     13.03368278	     -6.44343466	     82.41518128	     35.81054214	      6.50256503	     -2.29310772	     -0.81169142	     16.69897095	     -6.36758273	     79.58659239	     34.79912941	     69.30565403	      2.88843013	    -10.35045611
      0.04255319	     -2.39345628	     -2.07737479	     94.16866166	      0.25581345	      1.01597902	      0.36509568	     -0.15786376	     -3.90896221	    -18.48814206	     12.87543066	      0.22471866	     36.12353889	      5.43004317	      0.00000000	      1.47887087	      1.06199354	      9.69609114	      9.57476544	      0.16711118	     41.28262953	     10.10938811	      0.00000000	      0.22509229	     -0.04001273	     -1.60463485	      0.41801890	     -0.05321693	     -1.70492453	      0.36980413	     -0.09728694	     -1.70492453	      0.25725798	     -0.09728694	     -1.40405549	      0.20902070	     -0.08159395	     -1.30376582	      0.12861774	     -0.06197971	     -1.20347614	      1.60781174	     -0.45263197	     -8.92449765	      0.00000000	      0.00000000	     24.45261072	      4.63783543	      6.01944823	     13.02257008	     -6.54870621	     82.10545280	     36.06340294	      6.58257128	     -2.31466199	     -0.72297316	     16.89221662	     -6.32298534	     80.37989274	     34.84428880	     68.61786712	      3.44191326	    -10.36811818
      0.06382979	     -2.38860326	     -1.99697628	     93.77874953	      0.25654914	      1.01576759	      0.36526762	     -0.23562984	     -3.50115778	    -14.95212707	     12.61992800	      0.22025929	     35.20220056	      1.08515899	      0.00000000	      1.19818922	      1.09312507	     10.36992031	      9.25927510	      0.16160484	     40.93841516	      8.91163133	      0.00000000	      0.20479728	     -0.06010348	     -1.34897541	      0.38032903	     -0.07993762	     -1.43328637	      0.33646146	     -0.14613559	     -1.43328637	      0.23406282	     -0.14613559	     -1.18035348	      0.19017476	     -0.12256301	     -1.09604252	      0.11702117	     -0.09310028	     -1.01173156	      1.46284651	     -0.67990253	     -7.50259654	      0.00000000	      0.00000000	     23.84809675	      4.02253779	      3.92593628	     11.98028585	     -6.74156564	     77.66721637	     36.67619062	      7.62830839	     -3.09433417	      1.09081997	     19.27246800	     -5.71009897	     89.93138659	     34.17901047	     56.00359446	      3.86376556	    -11.94648543
      0.08510638	     -2.35408062	     -2.20810020	     93.70771771	      0.25645526	      1.01542083	      0.36526780	     -0.01008128	     -3.49108155	    -14.83354910	     12.66719052	      0.22108418	     35.14301672	      1.10032818	      0.00000000	      1.41421269	      1.10032886	     10.23752395	      9.21303381	      0.16079777	     40.90079835	      8.75052855	      0.00000000	      0.21313927	     -0.05402528	     -1.37534966	      0.39582095	     -0.07185362	     -1.46130901	      0.35016651	     -0.13135706	     -1.46130901	      0.24359688	     -0.13135706	     -1.20343095	      0.19792113	     -0.11016835	     -1.11747160	      0.12178778	     -0.08368515	     -1.03151224	      1.52243252	     -0.61114474	     -7.64928220	      0.00000000	      0.00000000	     23.50625004	      4.01703452	      4.05061747	     12.16773311	     -6.76221808	     77.71368001	     36.77392529	      8.20482197	     -3.12742521	      1.21185658	     19.24502859	     -5.76006135	     89.89683296	     34.35680025	     55.69586266	      3.83761527	    -11.79641289
      0.10638298	     -2.34169930	     -2.37185473	     93.66657069	      0.25632476	      1.01525195	      0.36520723	      0.17300648	     -3.50492209	    -14.74691145	     12.69620265	      0.22159054	     35.13579151	      1.10758031	      0.00000000	      1.59513224	      1.11806096	     10.05051350	      9.15055821	      0.15970737	     41.00941227	      8.60441427	      0.00000000	      0.20492461	     -0.05015507	     -1.41236049	      0.38056549	     -0.06670625	     -1.50063302	      0.33667064	     -0.12194705	     -1.50063302	      0.23420834	     -0.12194705	     -1.23581543	      0.19029299	     -0.10227623	     -1.14754290	      0.11709392	     -0.07769021	     -1.05927037	      1.46375600	     -0.56736423	     -7.85512535	      0.00000000	      0.00000000	     23.33715252	      4.03694081	      4.13841693	     12.34853124	     -6.75753488	     77.70364185	     36.86206012	      8.49020920	     -3.16045304	      1.32748820	     19.23709055	     -5.78487921	     89.82952599	     34.44045814	     55.49931214	      3.82750210	    -11.71024644
      0.12765957	     -2.15321433	     -2.49009670	     93.85139852	      0.25601138	      1.01538073	      0.36516858	      0.20998580	     -3.13136653	    -13.46056679	     12.44286810	      0.21716902	     34.38846595	     -0.81767193	      0.00000000	      1.84404918	      0.73650460	      7.09049186	      9.18431797	      0.16029659	     41.50870420	     11.97206685	      0.00000000	      0.19032631	     -0.01023767	     -1.63279887	      0.35345498	     -0.01361610	     -1.73484880	      0.31268709	     -0.02489188	     -1.73484880	      0.21752394	     -0.02489188	     -1.42869902	      0.17673701	     -0.02087666	     -1.32664909	      0.10875245	     -0.01585815	     -1.22459916	      1.35948177	     -0.11581060	     -9.08113750	      0.00000000	      0.00000000	     23.25111152	      4.51117497	      6.10042421	     13.16885931	     -6.63505242	     79.32715130	     36.86293812	      7.72650325	     -3.61592206	      2.19998490	     18.83224128	     -5.97867885	     89.37074618	     34.49952367	     51.98898690	      4.10352494	    -12.21469719
      0.14893617	     -2.08008039	     -2.71124345	     93.85572962	      0.25565727	      1.01522191	      0.36537508	      0.47093593	     -3.10532508	    -13.27189787	     12.42858587	      0.21691974	     34.38777237	     -0.66050126	      0.00000000	      2.08767504	      0.72717808	      7.19196202	      9.07592691	      0.15840481	     41.39446400	     11.56831679	      0.00000000	      0.19158890	      0.00479625	     -1.66750472	      0.35579975	      0.00637902	     -1.77172376	      0.31476141	      0.01166161	     -1.77172376	      0.21896695	      0.01166161	     -1.45906663	      0.17790945	      0.00978052	     -1.35484758	      0.10947390	      0.00742939	     -1.25062854	      1.36850036	      0.05425616	     -9.27416100	      0.00000000	      0.00000000	     23.34158476	      4.65940518	      6.14692679	     13.27311868	     -6.72315668	     79.20402994	     36.96664221	      8.28730377	     -3.63999362	      2.27959752	     18.86566421	     -5.99100666	     89.22918460	     34.63789921	     51.89799359	      4.02077202	    -12.11609433
      0.17021277	     -1.97945774	     -2.74355628	     94.06325809	      0.25510530	      1.01535031	      0.36545875	      0.49768084	     -3.09064222	    -13.95027308	     12.40050580	      0.21642966	     34.33938000	      0.01870151	      0.00000000	      2.26965625	      0.50798974	      5.18357247	      9.22253358	      0.16096358	     41.84639154	     14.03713513	      0.00000000	      0.18494268	      0.02618407	     -1.78089076	      0.34345706	      0.03482481	     -1.89219644	      0.30384233	      0.06366394	     -1.89219644	      0.21137099	      0.06366394	     -1.55827942	      0.17173777	      0.05339455	     -1.44697375	      0.10567625	      0.04055912	     -1.33566807	      1.32102709	      0.29619940	     -9.90478017	      0.00000000	      0.00000000	     23.03135890	      5.35112739	      7.09611523	     13.37489538	     -6.73779224	     79.10915848	     37.09446557	      7.43212061	     -3.88641994	      2.99745912	     18.51765981	     -6.00321516	     87.82909761	     34.48203732	     54.05360491	      3.57440872	    -12.60193087
